<svg width="384.771" height="384.769" viewBox="0 0 101.804 101.803" xmlns:xlink="http://www.w3.org/1999/xlink"
     xmlns="http://www.w3.org/2000/svg">
    <defs>
        <linearGradient xlink:href="#a" id="c" x1="107.279" y1="190.164" x2="107.279" y2="273.409"
                        gradientUnits="userSpaceOnUse" gradientTransform="translate(152.351 -141.109)"/>
        <linearGradient id="a">
            <stop style="stop-color:#18a2eb;stop-opacity:1" offset="0"/>
            <stop style="stop-color:#e6f5fe;stop-opacity:1" offset="1"/>
        </linearGradient>
        <linearGradient xlink:href="#b" id="d" x1="108.55" y1="247.907" x2="108.619" y2="276.679"
                        gradientUnits="userSpaceOnUse" gradientTransform="translate(151.012 -144.379)"/>
        <linearGradient id="b">
            <stop style="stop-color:#6dea18;stop-opacity:1" offset="0"/>
            <stop style="stop-color:#326709;stop-opacity:1" offset="1"/>
        </linearGradient>
        <clipPath clipPathUnits="userSpaceOnUse" id="e">
            <path
                style="fill:#010100;fill-opacity:1;stroke:none;stroke-width:.427679px;stroke-linecap:butt;stroke-linejoin:miter;stroke-opacity:1"
                class="powerclip"
                d="M42.21 36.285h112.346V148.68H42.21zm87.48 14.819-.485.482s2.9 2.337 3.192 2.64c.292.303 2.497-1.643 2.497-1.643z"/>
        </clipPath>
        <clipPath clipPathUnits="userSpaceOnUse" id="f">
            <path
                style="fill:#000;fill-opacity:1;stroke:none;stroke-width:2.86409;stroke-miterlimit:4;stroke-dasharray:none;stroke-opacity:1"
                class="powerclip" d="M42.21 36.285h112.346V148.68H42.21zm14.401 43.06v24.616h81.027V79.345z"/>
        </clipPath>
        <clipPath clipPathUnits="userSpaceOnUse" id="g">
            <path
                style="fill:#000;fill-opacity:1;stroke:none;stroke-width:.264583px;stroke-linecap:butt;stroke-linejoin:miter;stroke-opacity:1"
                d="m58.315-59.697-5.62-6.385-.087-64.865 3.545-1.418 26.878 22.924-24.103 49.576z"/>
        </clipPath>
        <clipPath clipPathUnits="userSpaceOnUse" id="h">
            <path
                style="fill:#000;fill-opacity:1;stroke:none;stroke-width:.264583px;stroke-linecap:butt;stroke-linejoin:miter;stroke-opacity:1"
                d="m125.33-60.663 7.013-7.527-1.431-27.724 4.725-31.8-3.81-1.608-4.436-4.73-28.937 19.84 17.754 55.104z"/>
        </clipPath>
        <path id="i" d="M200.529 285.615H679.3v183.199H200.529z"/>
        <path id="j" d="M200.529 285.615H679.3v183.199H200.529z"/>
    </defs>
    <g transform="translate(-208.882 -39.95)">
        <rect x="218.074" y="48.882" rx="1.534" width="83.675" height="83.675" fill="#92d3f5"
              style="display:inline;fill:url(#c);fill-opacity:1;stroke-width:1.95617"/>
        <path
            style="display:inline;fill:url(#d);fill-opacity:1;stroke:none;stroke-width:.264583px;stroke-linecap:butt;stroke-linejoin:miter;stroke-opacity:1"
            d="M210.624 114.26s10.454 2.231 17.927-2.212c9.174-5.455 13.26-6.562 22.837-8.597 5.573-1.184 16.89-.042 25.712 2.338 8.58 2.315 14.685 5.755 22.994 7.213 7.484 1.313 8.175 3.528 8.175 3.528l-1.45 15.91-90.478.181-5.502-.32z"/>
        <circle
            style="display:inline;fill:#fcff49;fill-opacity:1;stroke:none;stroke-width:2.60969;stroke-miterlimit:4;stroke-dasharray:none;stroke-opacity:1"
            cx="295.409" cy="54.972" r="13.771"/>
        <g transform="rotate(-4.894 554.276 -2211.418) scale(.61865)" clip-path="url(#e)" style="display:inline">
            <g clip-path="url(#f)">
                <circle
                    style="fill:none;stroke:#000;stroke-width:3;stroke-miterlimit:4;stroke-dasharray:none;stroke-opacity:1"
                    r="49.673" cy="92.458" cx="98.383"/>
                <ellipse
                    style="fill:none;stroke:#000;stroke-width:2.43562;stroke-miterlimit:4;stroke-dasharray:none;stroke-opacity:1"
                    cx="98.237" cy="92.507" rx="32.556" ry="49.955"/>
                <ellipse
                    style="fill:none;stroke:#000;stroke-width:2.43562;stroke-miterlimit:4;stroke-dasharray:none;stroke-opacity:1"
                    cx="29.855" cy="-98.024" rx="32.556" ry="49.955" transform="rotate(90)" clip-path="url(#g)"/>
                <ellipse
                    style="fill:none;stroke:#000;stroke-width:2.43562;stroke-miterlimit:4;stroke-dasharray:none;stroke-opacity:1"
                    cx="153.815" cy="-97.946" rx="32.556" ry="49.955" transform="rotate(90)" clip-path="url(#h)"/>
            </g>
            <text xml:space="preserve" transform="matrix(.27522 0 0 .26458 -3.975 -6.354)"
                  style="font-style:normal;font-weight:400;font-size:140px;line-height:1.25;font-family:sans-serif;white-space:pre;shape-inside:url(#i);display:inline;fill:#000;fill-opacity:1;stroke:none"><tspan x="200.529" y="409.482">www</tspan></text>
        </g>
        <g style="display:inline">
            <g fill="none" stroke="#a57939" stroke-linecap="round" stroke-linejoin="round">
                <path stroke-width="2.032" style="display:inline" d="M36.398 13.756v43.088"
                      transform="translate(189.403 20.47) scale(1.95617)"/>
                <path stroke-width="2.025" style="display:inline" d="M15.101 28.397h42.775"
                      transform="translate(189.403 20.47) scale(1.95617)"/>
            </g>
            <path fill="#a57939"
                  d="M308.612 141.753h-97.657a2.074 2.074 0 0 1-2.073-2.074V42.023a2.074 2.074 0 0 1 2.073-2.074h97.657a2.074 2.074 0 0 1 2.074 2.074v97.656a2.074 2.074 0 0 1-2.074 2.074zm-86.789-10.979h75.616a2.074 2.074 0 0 0 2.073-2.073V53.084a2.074 2.074 0 0 0-2.073-2.074h-75.616a2.074 2.074 0 0 0-2.073 2.074V128.7a2.074 2.074 0 0 0 2.073 2.073z"/>
            <path d="M308.73 139.797h-97.891m0-7.497V41.906h97.89V132.3" stroke-width="3.912" fill="none" stroke="#000"
                  stroke-linecap="round" stroke-linejoin="round"/>
        </g>
        <text xml:space="preserve" transform="matrix(.16965 -.01452 .01396 .16309 207.287 33.838)"
              style="font-style:normal;font-weight:400;font-size:140px;line-height:1.25;font-family:sans-serif;white-space:pre;shape-inside:url(#j);display:inline;fill:#000;fill-opacity:1;stroke:none"><tspan x="200.529" y="409.482">w</tspan></text>
        <path
            style="display:inline;fill:#000;fill-opacity:1;stroke:none;stroke-width:.264583px;stroke-linecap:butt;stroke-linejoin:miter;stroke-opacity:1"
            d="M254.552 120.832s3.491-.02 3.969-.107c.478-.087 3.006-.121 4.177-.673 1.17-.553 1.082 1.688 1.082 1.688s-1.918.707-5.628.89c-3.71.183-3.6-1.798-3.6-1.798zm16.618-46.94s1.87 4.29 1.908 4.506c.038.216 1.462-.348 1.462-.348s-1.529-3.918-1.838-4.454c-.309-.536-1.532.296-1.532.296zm9.398-.015s2.5 4.17 2.559 4.42c.059.253 1.915-.26 1.915-.26s-2.036-3.98-2.416-4.38c-.382-.402-2.058.22-2.058.22zm-17.821-10.204c-1.136-.712-3.319-1.841-4.546-2.197-.707-.205-1.266-1.951-1.266-1.951l1.59-.078c.256-.004 4.1.469 4.692.722.591.253-.323 1.527-.323 1.527l-.2.318.309.782s-.123.723-.256.877z"/>
    </g>
</svg>
